<mxfile host="65bd71144e">
    <diagram id="correctedUMLDiagram" name="UML Classes Corrected">
        <mxGraphModel dx="2773" dy="1717" grid="1" gridSize="10" guides="1" tooltips="1" connect="1" arrows="1" fold="1" page="1" pageScale="1" pageWidth="1400" pageHeight="1000" math="0" shadow="0">
            <root>
                <mxCell id="0"/>
                <mxCell id="1" parent="0"/>
                <mxCell id="classUser" value="User" style="swimlane;rounded=1;html=1;" parent="1" vertex="1">
                    <mxGeometry x="720" y="220" width="180" height="270" as="geometry"/>
                </mxCell>
                <mxCell id="userAttr1" value="+ user_id : int&amp;nbsp;" style="text;html=1;" parent="classUser" vertex="1">
                    <mxGeometry x="10" y="30" width="160" height="26" as="geometry"/>
                </mxCell>
                <mxCell id="userAttr2" value="- full_name : string" style="text;html=1;" parent="classUser" vertex="1">
                    <mxGeometry x="10" y="60" width="160" height="26" as="geometry"/>
                </mxCell>
                <mxCell id="userAttr3" value="- birth_date : date" style="text;html=1;" parent="classUser" vertex="1">
                    <mxGeometry x="10" y="90" width="160" height="26" as="geometry"/>
                </mxCell>
                <mxCell id="userAttr4" value="- phone : string" style="text;html=1;" parent="classUser" vertex="1">
                    <mxGeometry x="10" y="120" width="160" height="26" as="geometry"/>
                </mxCell>
                <mxCell id="userAttr5" value="- email : string" style="text;html=1;" parent="classUser" vertex="1">
                    <mxGeometry x="10" y="150" width="160" height="26" as="geometry"/>
                </mxCell>
                <mxCell id="userAttr6" value="- rg : string" style="text;html=1;" parent="classUser" vertex="1">
                    <mxGeometry x="10" y="180" width="160" height="26" as="geometry"/>
                </mxCell>
                <mxCell id="userAttr7" value="- cpf : string" style="text;html=1;" parent="classUser" vertex="1">
                    <mxGeometry x="10" y="210" width="160" height="26" as="geometry"/>
                </mxCell>
                <mxCell id="userAttr8" value="- role_id : int&amp;nbsp;" style="text;html=1;" parent="classUser" vertex="1">
                    <mxGeometry x="10" y="240" width="160" height="26" as="geometry"/>
                </mxCell>
                <mxCell id="classRoles" value="Roles" style="swimlane;rounded=1;html=1;" parent="1" vertex="1">
                    <mxGeometry x="1000" y="220" width="180" height="100" as="geometry"/>
                </mxCell>
                <mxCell id="rolesAttr1" value="+ role_id : int&amp;nbsp;" style="text;html=1;" parent="classRoles" vertex="1">
                    <mxGeometry x="10" y="30" width="160" height="26" as="geometry"/>
                </mxCell>
                <mxCell id="rolesAttr2" value="- role_name : string" style="text;html=1;" parent="classRoles" vertex="1">
                    <mxGeometry x="10" y="60" width="160" height="26" as="geometry"/>
                </mxCell>
                <mxCell id="edgeUserRoles" style="edgeStyle=orthogonalEdgeStyle;rounded=0;html=1;" parent="1" edge="1">
                    <mxGeometry relative="1" as="geometry">
                        <mxPoint x="900" y="280" as="sourcePoint"/>
                        <mxPoint x="1000" y="279" as="targetPoint"/>
                        <Array as="points">
                            <mxPoint x="900" y="279"/>
                        </Array>
                    </mxGeometry>
                </mxCell>
                <mxCell id="classStudent" value="Student" style="swimlane;rounded=1;html=1;" parent="1" vertex="1">
                    <mxGeometry x="476" y="380" width="180" height="180" as="geometry"/>
                </mxCell>
                <mxCell id="studentAttr1" value="+ student_id : int" style="text;html=1;" parent="classStudent" vertex="1">
                    <mxGeometry x="10" y="30" width="160" height="26" as="geometry"/>
                </mxCell>
                <mxCell id="studentAttr2" value="- user_id : int" style="text;html=1;" parent="classStudent" vertex="1">
                    <mxGeometry x="10" y="60" width="160" height="26" as="geometry"/>
                </mxCell>
                <mxCell id="studentAttr3" value="- enrollment_date : date" style="text;html=1;" parent="classStudent" vertex="1">
                    <mxGeometry x="10" y="90" width="160" height="26" as="geometry"/>
                </mxCell>
                <mxCell id="studentAttr4" value="- class_id : int" style="text;html=1;" parent="classStudent" vertex="1">
                    <mxGeometry x="10" y="120" width="160" height="26" as="geometry"/>
                </mxCell>
                <mxCell id="studentAttr5" value="- degreeprogram_id : int" style="text;html=1;" parent="classStudent" vertex="1">
                    <mxGeometry x="10" y="150" width="160" height="26" as="geometry"/>
                </mxCell>
                <mxCell id="edgeStudentUser" style="edgeStyle=orthogonalEdgeStyle;rounded=0;html=1;entryX=0;entryY=0.5;entryDx=0;entryDy=0;exitX=1;exitY=0.25;exitDx=0;exitDy=0;" parent="1" source="classStudent" edge="1" target="classUser">
                    <mxGeometry relative="1" as="geometry">
                        <mxPoint x="690" y="280" as="targetPoint"/>
                        <Array as="points">
                            <mxPoint x="690" y="425"/>
                            <mxPoint x="690" y="355"/>
                        </Array>
                        <mxPoint x="630" y="540" as="sourcePoint"/>
                    </mxGeometry>
                </mxCell>
                <mxCell id="classProfessor" value="Professor" style="swimlane;rounded=1;html=1;" parent="1" vertex="1">
                    <mxGeometry x="1000" y="335" width="180" height="185" as="geometry"/>
                </mxCell>
                <mxCell id="profAttr1" value="+ professor_id : int&amp;nbsp;" style="text;html=1;" parent="classProfessor" vertex="1">
                    <mxGeometry x="10" y="30" width="160" height="26" as="geometry"/>
                </mxCell>
                <mxCell id="profAttr2" value="- user_id : int&amp;nbsp;" style="text;html=1;" parent="classProfessor" vertex="1">
                    <mxGeometry x="10" y="60" width="160" height="26" as="geometry"/>
                </mxCell>
                <mxCell id="profAttr3" value="- hire_date : date" style="text;html=1;" parent="classProfessor" vertex="1">
                    <mxGeometry x="10" y="90" width="160" height="26" as="geometry"/>
                </mxCell>
                <mxCell id="profAttr4" value="- subject_1 : int&amp;nbsp;" style="text;html=1;" parent="classProfessor" vertex="1">
                    <mxGeometry x="10" y="120" width="160" height="26" as="geometry"/>
                </mxCell>
                <mxCell id="profAttr5" value="- subject_2 : int&amp;nbsp;" style="text;html=1;" parent="classProfessor" vertex="1">
                    <mxGeometry x="10" y="150" width="160" height="26" as="geometry"/>
                </mxCell>
                <mxCell id="edgeProfessorUser" style="edgeStyle=orthogonalEdgeStyle;rounded=0;html=1;exitX=0;exitY=0.25;exitDx=0;exitDy=0;entryX=1;entryY=0.5;entryDx=0;entryDy=0;" parent="1" source="classProfessor" target="classUser" edge="1">
                    <mxGeometry relative="1" as="geometry">
                        <Array as="points">
                            <mxPoint x="1000" y="380"/>
                            <mxPoint x="960" y="380"/>
                            <mxPoint x="960" y="355"/>
                        </Array>
                        <mxPoint x="900" y="390" as="targetPoint"/>
                    </mxGeometry>
                </mxCell>
                <mxCell id="classAdmin" value="Administration" style="swimlane;rounded=1;html=1;arcSize=23;" parent="1" vertex="1">
                    <mxGeometry x="476" y="220" width="180" height="120" as="geometry"/>
                </mxCell>
                <mxCell id="adminAttr1" value="+ admin_id : int" style="text;html=1;" parent="classAdmin" vertex="1">
                    <mxGeometry x="10" y="30" width="160" height="26" as="geometry"/>
                </mxCell>
                <mxCell id="adminAttr2" value="- user_id : int&amp;nbsp;" style="text;html=1;" parent="classAdmin" vertex="1">
                    <mxGeometry x="10" y="60" width="160" height="26" as="geometry"/>
                </mxCell>
                <mxCell id="adminAttr3" value="- hire_date : date" style="text;html=1;" parent="classAdmin" vertex="1">
                    <mxGeometry x="10" y="90" width="160" height="26" as="geometry"/>
                </mxCell>
                <mxCell id="edgeAdminUser" style="edgeStyle=orthogonalEdgeStyle;rounded=0;html=1;entryX=0;entryY=0.25;entryDx=0;entryDy=0;exitX=1;exitY=0.5;exitDx=0;exitDy=0;" parent="1" source="classAdmin" target="classUser" edge="1">
                    <mxGeometry relative="1" as="geometry">
                        <mxPoint x="680" y="260" as="sourcePoint"/>
                        <mxPoint x="690" y="270" as="targetPoint"/>
                        <Array as="points">
                            <mxPoint x="656" y="288"/>
                            <mxPoint x="700" y="288"/>
                        </Array>
                    </mxGeometry>
                </mxCell>
                <mxCell id="classClasses" value="Classes" style="swimlane;rounded=1;html=1;" parent="1" vertex="1">
                    <mxGeometry x="720" y="510" width="180" height="210" as="geometry"/>
                </mxCell>
                <mxCell id="classesAttr1" value="+ class_id : int&amp;nbsp;&lt;div&gt;&lt;br&gt;&lt;/div&gt;" style="text;html=1;" parent="classClasses" vertex="1">
                    <mxGeometry x="10" y="30" width="160" height="26" as="geometry"/>
                </mxCell>
                <mxCell id="classesAttr2" value="- subject_id : int&amp;nbsp;" style="text;html=1;" parent="classClasses" vertex="1">
                    <mxGeometry x="10" y="60" width="160" height="26" as="geometry"/>
                </mxCell>
                <mxCell id="classesAttr3" value="- professor_id : int&amp;nbsp;" style="text;html=1;" parent="classClasses" vertex="1">
                    <mxGeometry x="10" y="90" width="160" height="26" as="geometry"/>
                </mxCell>
                <mxCell id="classesAttr4" value="- turn : string" style="text;html=1;" parent="classClasses" vertex="1">
                    <mxGeometry x="10" y="120" width="160" height="26" as="geometry"/>
                </mxCell>
                <mxCell id="classesAttr5" value="- year : int" style="text;html=1;" parent="classClasses" vertex="1">
                    <mxGeometry x="10" y="150" width="160" height="26" as="geometry"/>
                </mxCell>
                <mxCell id="classesAttr6" value="- semester : int" style="text;html=1;" parent="classClasses" vertex="1">
                    <mxGeometry x="10" y="180" width="160" height="26" as="geometry"/>
                </mxCell>
                <mxCell id="edgeStudentClasses" style="edgeStyle=orthogonalEdgeStyle;rounded=0;html=1;exitX=1;exitY=0.5;exitDx=0;exitDy=0;entryX=0;entryY=0.25;entryDx=0;entryDy=0;" parent="1" source="classStudent" target="classClasses" edge="1">
                    <mxGeometry relative="1" as="geometry">
                        <mxPoint x="850" y="760" as="sourcePoint"/>
                        <Array as="points">
                            <mxPoint x="656" y="470"/>
                            <mxPoint x="690" y="470"/>
                            <mxPoint x="690" y="563"/>
                        </Array>
                        <mxPoint x="660" y="840" as="targetPoint"/>
                    </mxGeometry>
                </mxCell>
                <mxCell id="edgeClassesProfessor" style="edgeStyle=orthogonalEdgeStyle;rounded=0;html=1;entryX=0;entryY=0.5;exitX=1;exitY=0.25;exitDx=0;exitDy=0;" parent="1" target="classProfessor" edge="1" source="classClasses">
                    <mxGeometry relative="1" as="geometry">
                        <mxPoint x="580" y="880" as="sourcePoint"/>
                    </mxGeometry>
                </mxCell>
                <mxCell id="classSubjects" value="Subjects" style="swimlane;rounded=1;html=1;" parent="1" vertex="1">
                    <mxGeometry x="1000" y="540" width="180" height="100" as="geometry"/>
                </mxCell>
                <mxCell id="subjectsAttr1" value="+ subject_id : int&amp;nbsp;" style="text;html=1;" parent="classSubjects" vertex="1">
                    <mxGeometry x="10" y="30" width="160" height="26" as="geometry"/>
                </mxCell>
                <mxCell id="subjectsAttr2" value="- subject_name : string" style="text;html=1;" parent="classSubjects" vertex="1">
                    <mxGeometry x="10" y="60" width="160" height="26" as="geometry"/>
                </mxCell>
                <mxCell id="edgeClassesSubjects" style="edgeStyle=orthogonalEdgeStyle;rounded=0;html=1;entryX=0;entryY=0.5;exitX=1;exitY=0.5;exitDx=0;exitDy=0;" parent="1" source="classClasses" target="classSubjects" edge="1">
                    <mxGeometry relative="1" as="geometry">
                        <mxPoint x="580" y="990" as="sourcePoint"/>
                        <Array as="points">
                            <mxPoint x="950" y="625"/>
                            <mxPoint x="950" y="590"/>
                        </Array>
                    </mxGeometry>
                </mxCell>
                <mxCell id="classCurriculum" value="AcademicCurriculum" style="swimlane;rounded=1;html=1;" parent="1" vertex="1">
                    <mxGeometry x="1000" y="660" width="180" height="120" as="geometry"/>
                </mxCell>
                <mxCell id="curriculumAttr1" value="+ curriculum_id : int&amp;nbsp;" style="text;html=1;" parent="classCurriculum" vertex="1">
                    <mxGeometry x="10" y="30" width="160" height="26" as="geometry"/>
                </mxCell>
                <mxCell id="curriculumAttr2" value="- degreeprogram_id : int&amp;nbsp;" style="text;html=1;" parent="classCurriculum" vertex="1">
                    <mxGeometry x="10" y="60" width="160" height="26" as="geometry"/>
                </mxCell>
                <mxCell id="curriculumAttr3" value="- subject_id : int&amp;nbsp;" style="text;html=1;" parent="classCurriculum" vertex="1">
                    <mxGeometry x="10" y="90" width="160" height="26" as="geometry"/>
                </mxCell>
                <mxCell id="classDegreeProg" value="DegreeProgram" style="swimlane;rounded=1;html=1;" parent="1" vertex="1">
                    <mxGeometry x="466" y="610" width="200" height="100" as="geometry"/>
                </mxCell>
                <mxCell id="degAttr1" value="+ degreeprogram_id : int&amp;nbsp;" style="text;html=1;" parent="classDegreeProg" vertex="1">
                    <mxGeometry x="10" y="30" width="180" height="26" as="geometry"/>
                </mxCell>
                <mxCell id="degAttr2" value="- degreeprogram_name : string" style="text;html=1;" parent="classDegreeProg" vertex="1">
                    <mxGeometry x="10" y="60" width="180" height="26" as="geometry"/>
                </mxCell>
                <mxCell id="edgeStudentDegree" style="edgeStyle=orthogonalEdgeStyle;rounded=0;html=1;exitX=0;exitY=0.75;entryX=0;entryY=0.5;exitDx=0;exitDy=0;entryDx=0;entryDy=0;" parent="1" source="classStudent" target="classDegreeProg" edge="1">
                    <mxGeometry relative="1" as="geometry">
                        <Array as="points">
                            <mxPoint x="476" y="515"/>
                            <mxPoint x="450" y="515"/>
                            <mxPoint x="450" y="660"/>
                        </Array>
                    </mxGeometry>
                </mxCell>
                <mxCell id="edgeCurricDegree" style="edgeStyle=orthogonalEdgeStyle;rounded=0;html=1;exitX=0;exitY=0.5;entryX=0.75;entryY=1;entryDx=0;entryDy=0;exitDx=0;exitDy=0;" parent="1" source="classCurriculum" target="classDegreeProg" edge="1">
                    <mxGeometry relative="1" as="geometry">
                        <Array as="points">
                            <mxPoint x="940" y="730"/>
                            <mxPoint x="940" y="760"/>
                            <mxPoint x="616" y="760"/>
                        </Array>
                    </mxGeometry>
                </mxCell>
                <mxCell id="edgeCurricSubject" style="edgeStyle=orthogonalEdgeStyle;rounded=0;html=1;exitX=1;exitY=0.5;exitDx=0;exitDy=0;entryX=1;entryY=0.75;entryDx=0;entryDy=0;" parent="1" source="classCurriculum" target="classSubjects" edge="1">
                    <mxGeometry relative="1" as="geometry">
                        <Array as="points">
                            <mxPoint x="1200" y="730"/>
                            <mxPoint x="1200" y="615"/>
                        </Array>
                        <mxPoint x="1160" y="640" as="targetPoint"/>
                    </mxGeometry>
                </mxCell>
                <mxCell id="classAttendance" value="Attendance" style="swimlane;rounded=1;html=1;" parent="1" vertex="1">
                    <mxGeometry x="200" y="220" width="200" height="210" as="geometry"/>
                </mxCell>
                <mxCell id="attAttr1" value="+ attendance_id : int" style="text;html=1;" parent="classAttendance" vertex="1">
                    <mxGeometry x="10" y="30" width="180" height="26" as="geometry"/>
                </mxCell>
                <mxCell id="attAttr2" value="- student_id : int" style="text;html=1;" parent="classAttendance" vertex="1">
                    <mxGeometry x="10" y="60" width="180" height="26" as="geometry"/>
                </mxCell>
                <mxCell id="attAttr3" value="- attendance_date : date" style="text;html=1;" parent="classAttendance" vertex="1">
                    <mxGeometry x="10" y="90" width="180" height="26" as="geometry"/>
                </mxCell>
                <mxCell id="attAttr4" value="- daily_presence : boolean" style="text;html=1;" parent="classAttendance" vertex="1">
                    <mxGeometry x="10" y="120" width="180" height="26" as="geometry"/>
                </mxCell>
                <mxCell id="attAttr5" value="- class_count : int" style="text;html=1;" parent="classAttendance" vertex="1">
                    <mxGeometry x="10" y="150" width="180" height="26" as="geometry"/>
                </mxCell>
                <mxCell id="attAttr6" value="- total_presences : int" style="text;html=1;" parent="classAttendance" vertex="1">
                    <mxGeometry x="10" y="180" width="180" height="26" as="geometry"/>
                </mxCell>
                <mxCell id="classGrades" value="Grades" style="swimlane;rounded=1;html=1;" parent="1" vertex="1">
                    <mxGeometry x="200" y="470" width="200" height="310" as="geometry"/>
                </mxCell>
                <mxCell id="gradeAttr1" value="+ grade_id : int&amp;nbsp;" style="text;html=1;" parent="classGrades" vertex="1">
                    <mxGeometry x="10" y="30" width="180" height="26" as="geometry"/>
                </mxCell>
                <mxCell id="gradeAttr2" value="- subject_id : int&amp;nbsp;" style="text;html=1;" parent="classGrades" vertex="1">
                    <mxGeometry x="10" y="60" width="180" height="26" as="geometry"/>
                </mxCell>
                <mxCell id="gradeAttr3" value="- student_id : int&amp;nbsp;" style="text;html=1;" parent="classGrades" vertex="1">
                    <mxGeometry x="10" y="90" width="180" height="26" as="geometry"/>
                </mxCell>
                <mxCell id="gradeAttr4" value="- exam_1_score : float" style="text;html=1;" parent="classGrades" vertex="1">
                    <mxGeometry x="10" y="120" width="180" height="26" as="geometry"/>
                </mxCell>
                <mxCell id="gradeAttr5" value="- task_1_score : float" style="text;html=1;" parent="classGrades" vertex="1">
                    <mxGeometry x="10" y="150" width="180" height="26" as="geometry"/>
                </mxCell>
                <mxCell id="gradeAttr6" value="- exam_2_score : float" style="text;html=1;" parent="classGrades" vertex="1">
                    <mxGeometry x="10" y="180" width="180" height="26" as="geometry"/>
                </mxCell>
                <mxCell id="gradeAttr7" value="- task_2_score : float" style="text;html=1;" parent="classGrades" vertex="1">
                    <mxGeometry x="10" y="210" width="180" height="26" as="geometry"/>
                </mxCell>
                <mxCell id="gradeAttr8" value="- makeup_exam_score : float" style="text;html=1;" parent="classGrades" vertex="1">
                    <mxGeometry x="10" y="240" width="180" height="26" as="geometry"/>
                </mxCell>
                <mxCell id="gradeAttr9" value="- final_score : float" style="text;html=1;" parent="classGrades" vertex="1">
                    <mxGeometry x="10" y="270" width="180" height="26" as="geometry"/>
                </mxCell>
                <mxCell id="edgeGradesStudent" style="edgeStyle=orthogonalEdgeStyle;rounded=0;html=1;exitX=1;exitY=0.25;exitDx=0;exitDy=0;entryX=0;entryY=0.5;entryDx=0;entryDy=0;" parent="1" target="classStudent" edge="1" source="classGrades">
                    <mxGeometry relative="1" as="geometry">
                        <mxPoint x="1510" y="870" as="sourcePoint"/>
                        <mxPoint x="420" y="470" as="targetPoint"/>
                        <Array as="points">
                            <mxPoint x="400" y="530"/>
                            <mxPoint x="430" y="530"/>
                            <mxPoint x="430" y="470"/>
                        </Array>
                    </mxGeometry>
                </mxCell>
                <mxCell id="edgeGradesSubject" style="edgeStyle=orthogonalEdgeStyle;rounded=0;html=1;entryX=1;entryY=0.5;exitX=1;exitY=0.75;exitDx=0;exitDy=0;entryDx=0;entryDy=0;" parent="1" target="classSubjects" edge="1" source="classProfessor">
                    <mxGeometry relative="1" as="geometry">
                        <mxPoint x="1510" y="1035" as="sourcePoint"/>
                        <Array as="points">
                            <mxPoint x="1200" y="474"/>
                            <mxPoint x="1200" y="590"/>
                        </Array>
                    </mxGeometry>
                </mxCell>
                <mxCell id="12" style="edgeStyle=orthogonalEdgeStyle;rounded=0;html=1;entryX=0;entryY=0.25;entryDx=0;entryDy=0;exitX=1;exitY=0.25;exitDx=0;exitDy=0;" edge="1" parent="1" source="classAttendance" target="classStudent">
                    <mxGeometry relative="1" as="geometry">
                        <mxPoint x="370" y="310" as="sourcePoint"/>
                        <mxPoint x="466" y="359" as="targetPoint"/>
                        <Array as="points">
                            <mxPoint x="400" y="281"/>
                            <mxPoint x="430" y="281"/>
                            <mxPoint x="430" y="425"/>
                        </Array>
                    </mxGeometry>
                </mxCell>
            </root>
        </mxGraphModel>
    </diagram>
</mxfile>